<svg width="26" height="26" viewBox="0 0 26 26" fill="none" xmlns="http://www.w3.org/2000/svg">
<g opacity="0.5" clip-path="url(#clip0_1_4747)">
<path d="M23.9557 11.5209L19.5084 10.8357L16.7981 6.40815C16.6559 6.1764 16.4562 5.9853 16.2184 5.85333C15.9807 5.72135 15.7129 5.65298 15.4409 5.65482L4.08226 5.74532C3.75453 5.74809 3.43579 5.85288 3.17034 6.04512C2.9049 6.23736 2.70593 6.50752 2.60108 6.81804L1.31031 10.6456V19.4457H4.02024C4.2309 20.1305 4.65556 20.7297 5.23187 21.1554C5.80818 21.5811 6.50577 21.8108 7.22223 21.8108C7.9387 21.8108 8.63629 21.5811 9.2126 21.1554C9.78891 20.7297 10.2136 20.1305 10.4242 19.4457H15.45C15.6606 20.1305 16.0853 20.7297 16.6616 21.1554C17.2379 21.5811 17.9355 21.8108 18.652 21.8108C19.3684 21.8108 20.066 21.5811 20.6423 21.1554C21.2186 20.7297 21.6433 20.1305 21.854 19.4457H24.958V12.6895C24.9593 12.4067 24.8587 12.133 24.6747 11.9184C24.4906 11.7038 24.2354 11.5627 23.9557 11.5209ZM11.5576 7.26223L15.4535 7.23119L17.6261 10.7807L11.5576 10.7785V7.26223ZM4.09487 7.32174L9.98113 7.27484V10.778L2.93022 10.7755L4.09487 7.32174ZM7.22223 20.234C6.87145 20.234 6.52855 20.13 6.23689 19.9351C5.94522 19.7402 5.7179 19.4632 5.58366 19.1391C5.44942 18.815 5.4143 18.4584 5.48273 18.1144C5.55117 17.7704 5.72009 17.4543 5.96813 17.2063C6.21616 16.9583 6.53219 16.7893 6.87623 16.7209C7.22027 16.6525 7.57687 16.6876 7.90095 16.8218C8.22503 16.9561 8.50203 17.1834 8.69691 17.4751C8.89179 17.7667 8.99581 18.1096 8.99581 18.4604C8.99529 18.9306 8.80827 19.3814 8.47577 19.7139C8.14327 20.0464 7.69246 20.2335 7.22223 20.234ZM18.652 20.234C18.3012 20.234 17.9583 20.13 17.6666 19.9351C17.375 19.7402 17.1476 19.4632 17.0134 19.1391C16.8792 18.815 16.844 18.4584 16.9125 18.1144C16.9809 17.7704 17.1498 17.4543 17.3979 17.2063C17.6459 16.9583 17.9619 16.7893 18.306 16.7209C18.65 16.6525 19.0066 16.6876 19.3307 16.8218C19.6548 16.9561 19.9318 17.1834 20.1266 17.4751C20.3215 17.7667 20.4255 18.1096 20.4255 18.4604C20.425 18.9306 20.238 19.3814 19.9055 19.7139C19.573 20.0464 19.1222 20.2335 18.652 20.234ZM23.3815 17.8692H21.9487C21.8102 17.0956 21.4041 16.3954 20.8014 15.891C20.1987 15.3866 19.4379 15.1102 18.652 15.1102C17.8661 15.1102 17.1052 15.3866 16.5025 15.891C15.8998 16.3954 15.4937 17.0956 15.3552 17.8692H10.519C10.3805 17.0956 9.97439 16.3954 9.3717 15.891C8.769 15.3866 8.00813 15.1102 7.22223 15.1102C6.43634 15.1102 5.67547 15.3866 5.07277 15.891C4.47008 16.3954 4.06395 17.0956 3.92545 17.8692H2.88682V12.3527L19.1705 12.3788L23.3815 13.0275V17.8692Z" fill="black" stroke="black" stroke-width="0.525505"/>
</g>
<defs>
<clipPath id="clip0_1_4747">
<rect width="25.2242" height="25.2242" fill="white" transform="translate(0.52107 0.527588)"/>
</clipPath>
</defs>
</svg>
