<svg width="34" height="34" viewBox="0 0 34 34" fill="none" xmlns="http://www.w3.org/2000/svg">
<g clip-path="url(#clip0_1_5053)">
<path d="M31.5294 0.554199H3.24955C1.93321 0.554199 0.866211 1.62119 0.866211 2.93754V31.2174C0.866211 32.5338 1.93321 33.6008 3.24955 33.6008H18.519V20.821H14.2268V15.8189H18.519V12.1376C18.519 7.86861 21.1252 5.54502 24.9333 5.54502C26.7572 5.54502 28.3247 5.68092 28.7815 5.74168V10.2035H26.1556C24.0837 10.2035 23.6825 11.1881 23.6825 12.633V15.8189H28.6363L27.9909 20.821H23.6825V33.6008H31.5294C32.8458 33.6008 33.9128 32.5338 33.9128 31.2174V2.93754C33.9128 1.62119 32.8458 0.554199 31.5294 0.554199V0.554199Z" fill="#808080"/>
</g>
<defs>
<clipPath id="clip0_1_5053">
<rect width="33.0466" height="33.0466" fill="white" transform="translate(0.866211 0.554199)"/>
</clipPath>
</defs>
</svg>
