<svg width="26" height="26" viewBox="0 0 26 26" fill="none" xmlns="http://www.w3.org/2000/svg">
<g opacity="0.5">
<path d="M23.8109 22.5986H2.79072V20.4966H3.84173V4.73143C3.84173 4.45268 3.95246 4.18536 4.14956 3.98825C4.34666 3.79115 4.61399 3.68042 4.89274 3.68042H19.6069C19.8856 3.68042 20.1529 3.79115 20.35 3.98825C20.5471 4.18536 20.6579 4.45268 20.6579 4.73143V9.98648H22.7599V20.4966H23.8109V22.5986ZM18.5559 20.4966H20.6579V12.0885H14.3518V20.4966H16.4538V14.1905H18.5559V20.4966ZM18.5559 9.98648V5.78244H5.94375V20.4966H12.2498V9.98648H18.5559ZM8.04576 12.0885H10.1478V14.1905H8.04576V12.0885ZM8.04576 16.2925H10.1478V18.3946H8.04576V16.2925ZM8.04576 7.88446H10.1478V9.98648H8.04576V7.88446Z" fill="black"/>
</g>
</svg>
