<svg width="34" height="34" viewBox="0 0 34 34" fill="none" xmlns="http://www.w3.org/2000/svg">
<path d="M32.2518 1.80225C31.4199 0.970092 30.4229 0.554199 29.2615 0.554199H4.69146C3.52961 0.554199 2.53295 0.970243 1.70079 1.80225C0.868774 2.63404 0.452881 3.63086 0.452881 4.79248V29.3623C0.452881 30.5237 0.868699 31.5208 1.70079 32.3526C2.53295 33.1846 3.52984 33.6008 4.69146 33.6008H29.2612C30.4224 33.6008 31.4197 33.1846 32.2516 32.3526C33.0838 31.5208 33.4993 30.5237 33.4993 29.3623V4.79248C33.4992 3.63063 33.0838 2.63434 32.2518 1.80225ZM12.3186 12.4624C13.6165 11.2076 15.1764 10.5799 16.998 10.5799C18.8337 10.5799 20.4006 11.2076 21.6988 12.4624C22.9971 13.7175 23.6458 15.2344 23.6458 17.0129C23.6458 18.7912 22.9971 20.3082 21.6988 21.5629C20.4006 22.8182 18.8342 23.4459 16.998 23.4459C15.1765 23.4459 13.6168 22.8177 12.3186 21.5629C11.0204 20.308 10.3713 18.7912 10.3713 17.0129C10.3713 15.2344 11.0204 13.7176 12.3186 12.4624ZM29.7563 28.4805C29.7563 28.8532 29.6269 29.165 29.3689 29.4161C29.1102 29.6671 28.8023 29.7926 28.4434 29.7926H5.44458C5.07171 29.7926 4.75951 29.6671 4.50872 29.4161C4.25756 29.1655 4.13209 28.8532 4.13209 28.4805V14.5385H7.16557C6.87884 15.4422 6.73543 16.3819 6.73543 17.357C6.73543 20.1115 7.73934 22.4598 9.74736 24.4037C11.7556 26.3468 14.1724 27.3188 16.9979 27.3188C18.8626 27.3188 20.5836 26.874 22.1619 25.9848C23.7396 25.095 24.9867 23.8869 25.9053 22.3592C26.8234 20.8316 27.2824 19.1641 27.2824 17.3571C27.2824 16.3819 27.1385 15.4425 26.8517 14.5386H29.7565V28.4806H29.7563V28.4805ZM29.7563 9.26738C29.7563 9.68335 29.6129 10.0348 29.3256 10.3216C29.0389 10.6087 28.6876 10.752 28.2714 10.752H24.528C24.1123 10.752 23.7605 10.6086 23.4738 10.3216C23.187 10.0348 23.0437 9.68335 23.0437 9.26738V5.71778C23.0437 5.31613 23.187 4.96836 23.4738 4.67424C23.7606 4.38028 24.1124 4.23311 24.528 4.23311H28.2714C28.6876 4.23311 29.0389 4.3802 29.3256 4.67424C29.6129 4.96836 29.7563 5.31613 29.7563 5.71778V9.26738Z" fill="#808080"/>
</svg>
