<svg width="16" height="23" viewBox="0 0 16 23" fill="none" xmlns="http://www.w3.org/2000/svg">
<path d="M14.5259 9.03784L11.3728 10.6144L7.1688 7.46133L6.11779 13.2419L9.79633 16.3949L10.3218 21.1245M14.5259 7.46133V21.1245M6.11779 16.3949L4.01578 21.1245M4.54128 7.46133C2.96477 8.51234 1.91376 11.1399 1.91376 11.1399L4.01578 12.1909M8.21981 5.35931C8.7773 5.35931 9.31196 5.13785 9.70617 4.74364C10.1004 4.34944 10.3218 3.81478 10.3218 3.25729C10.3218 2.6998 10.1004 2.16515 9.70617 1.77094C9.31196 1.37674 8.7773 1.15527 8.21981 1.15527C7.66232 1.15527 7.12767 1.37674 6.73346 1.77094C6.33926 2.16515 6.11779 2.6998 6.11779 3.25729C6.11779 3.81478 6.33926 4.34944 6.73346 4.74364C7.12767 5.13785 7.66232 5.35931 8.21981 5.35931Z" stroke="black" stroke-width="2.10202" stroke-linecap="round" stroke-linejoin="round"/>
</svg>
