<svg width="22" height="25" viewBox="0 0 22 25" fill="none" xmlns="http://www.w3.org/2000/svg">
<path d="M19.3146 16.7999L20.6791 17.2263V15.7967V13.9682V13.3857L20.1851 13.077L13.3653 8.81461V4.36889C13.3653 3.02963 12.2822 1.94655 10.943 1.94655C9.60371 1.94655 8.52062 3.02963 8.52062 4.36889V8.8146L1.70081 13.077L1.20683 13.3857V13.9682V15.7967V17.2263L2.57133 16.7999L8.52062 14.9407V18.0139L7.11258 19.0699L6.69218 19.3852V19.9107V21.282V22.6754L8.03192 22.2926L10.943 21.4609L13.854 22.2926L15.1938 22.6754V21.282V19.9107V19.3852L14.7734 19.0699L13.3653 18.0139V14.9407L19.3146 16.7999Z" fill="white" stroke="black" stroke-width="2.10202"/>
</svg>
