<svg width="34" height="34" viewBox="0 0 34 34" fill="none" xmlns="http://www.w3.org/2000/svg">
<g clip-path="url(#clip0_1_5055)">
<path d="M33.0836 6.83101C31.8546 7.37008 30.5452 7.7274 29.1799 7.90089C30.5844 7.06234 31.6564 5.7446 32.1603 4.1563C30.8509 4.93703 29.4051 5.48849 27.8643 5.79624C26.6209 4.47231 24.8488 3.65234 22.9155 3.65234C19.1648 3.65234 16.1451 6.69676 16.1451 10.429C16.1451 10.966 16.1906 11.4823 16.3021 11.9739C10.6697 11.6992 5.68589 8.99969 2.33785 4.88746C1.75334 5.90158 1.41049 7.06234 1.41049 8.31191C1.41049 10.6582 2.61875 12.7381 4.41979 13.9422C3.33132 13.9216 2.2635 13.6056 1.35885 13.1078C1.35885 13.1284 1.35885 13.1553 1.35885 13.1821C1.35885 16.4744 3.70722 19.209 6.78675 19.839C6.23529 19.9897 5.63425 20.062 5.0105 20.062C4.57676 20.062 4.13889 20.0372 3.72788 19.9464C4.60568 22.6293 7.09656 24.6018 10.0584 24.6658C7.75336 26.4689 4.82668 27.5553 1.65833 27.5553C1.10274 27.5553 0.569863 27.5306 0.0369873 27.4624C3.03803 29.3977 6.59467 30.5027 10.4301 30.5027C22.897 30.5027 29.7128 20.1756 29.7128 11.2241C29.7128 10.9247 29.7025 10.6355 29.688 10.3484C31.0326 9.39419 32.1624 8.20244 33.0836 6.83101Z" fill="#808080"/>
</g>
<defs>
<clipPath id="clip0_1_5055">
<rect width="33.0466" height="33.0466" fill="white" transform="translate(0.0369873 0.554199)"/>
</clipPath>
</defs>
</svg>
