<svg width="34" height="34" viewBox="0 0 34 34" fill="none" xmlns="http://www.w3.org/2000/svg">
<g clip-path="url(#clip0_1_5056)">
<path d="M32.2645 7.90711C31.3681 6.31261 30.3953 6.01932 28.4145 5.90779C26.4359 5.77354 21.4603 5.71777 17.1498 5.71777C12.831 5.71777 7.85338 5.77354 5.87678 5.90573C3.90018 6.01932 2.92531 6.31055 2.02066 7.90711C1.09742 9.49954 0.622375 12.2424 0.622375 17.0713C0.622375 17.0755 0.622375 17.0775 0.622375 17.0775C0.622375 17.0817 0.622375 17.0837 0.622375 17.0837V17.0879C0.622375 21.8961 1.09742 24.6597 2.02066 26.2356C2.92531 27.8301 3.89812 28.1192 5.87472 28.2535C7.85338 28.3691 12.831 28.4373 17.1498 28.4373C21.4603 28.4373 26.4359 28.3691 28.4166 28.2555C30.3973 28.1213 31.3701 27.8321 32.2665 26.2376C33.198 24.6617 33.6689 21.8982 33.6689 17.0899C33.6689 17.0899 33.6689 17.0837 33.6689 17.0796C33.6689 17.0796 33.6689 17.0755 33.6689 17.0734C33.6689 12.2424 33.198 9.49954 32.2645 7.90711ZM13.0148 23.2738V10.8813L23.3419 17.0775L13.0148 23.2738Z" fill="#808080"/>
</g>
<defs>
<clipPath id="clip0_1_5056">
<rect width="33.0466" height="33.0466" fill="white" transform="translate(0.622375 0.554199)"/>
</clipPath>
</defs>
</svg>
